# ProBuilder 5.2.2
# https://unity3d.com/unity/features/worldbuilding/probuilder
# 12/14/2023 12:09:03 PM

mtllib ./DoorVisual.mtl
o DoorVisual

g DoorVisual_0
v -1.490146E-08 0 0.1000004
v -1 0 0.1000002
v 1.430512E-06 0.994893 0.1000004
v -0.9999995 0.994893 0.1000004
v -0.9999994 0 -0.1000004
v -0.9999994 0.994893 -0.1000004
v 1.52588E-06 0 -0.1000004
v 3.433229E-06 0.994893 -0.1000004

vt 0.4999998 0.7506384
vt 0.2499998 0.7506384
vt 0.5000002 0.9993616
vt 0.2499999 0.9993616
vt 0.593539 0.5012767
vt 0.5 0.5012767
vt 0.5935391 0.9987232
vt 0.5 0.9987232
vt 0.2500004 0.7506384
vt 1.266599E-07 0.7506384
vt 0.2500004 0.9993616
vt -3.576279E-07 0.9993616
vt 2.980232E-07 0.5938944
vt 0.5000007 0.5938944
vt -6.854534E-07 0.4998796
vt 0.5000007 0.4998796

vn -2.086163E-07 3.030845E-13 1
vn -1 4.792855E-07 -2.980224E-06
vn 0 0 -1
vn 0 1 0

usemtl Mat_ButtonDoor
f 3/3/1 4/4/1 2/2/1 1/1/1
f 4/7/2 6/8/2 5/6/2 2/5/2
f 6/11/3 8/12/3 7/10/3 5/9/3
f 8/15/4 6/16/4 4/14/4 3/13/4

