# ProBuilder 5.2.2
# https://unity3d.com/unity/features/worldbuilding/probuilder
# 12/14/2023 12:34:20 PM

mtllib ./KeyDoorVisual.mtl
o KeyDoorVisual

g DoorVisual_0
v -1.490146E-08 0 0.1000004
v -1 0 0.1000002
v 1.430512E-06 0.994893 0.1000004
v -0.9999995 0.994893 0.1000004
v -0.9999994 0 -0.1000004
v -0.9999994 0.994893 -0.1000004
v 1.52588E-06 0 -0.1000004
v 3.433229E-06 0.994893 -0.1000004

vt 0.9999998 0.5006384
vt 0.7499998 0.5006384
vt 1 0.7493616
vt 0.7499999 0.7493616
vt 0.688378 0.5006384
vt 0.688378 0.7493616
vt 1 0.5006384
vt 0.7500001 0.5006384
vt 0.7499668 0.4378457
vt 0.9999675 0.4378457

vn -2.086163E-07 3.030845E-13 1
vn -1 4.792855E-07 -2.980224E-06
vn 0 0 -1
vn 0 1 0

usemtl Mat_ButtonDoor
f 3/3/1 4/4/1 2/2/1 1/1/1
f 4/4/2 6/6/2 5/5/2 2/2/2
f 6/3/3 8/4/3 7/8/3 5/7/3
f 8/9/4 6/10/4 4/1/4 3/2/4

