# ProBuilder 5.2.2
# https://unity3d.com/unity/features/worldbuilding/probuilder
# 12/4/2023 9:51:38 PM

mtllib ./Dummy_Other_3.mtl
o Dummy_Other_3

g Dummy_Other_3
v 0 0 1
v -1 0 1
v 0 1 1
v -1 1 1
v -1 0 0
v -1 1 0
v 0 0 0
v 0 1 0

vt 1 -5.960464E-08
vt 0.5 -5.960464E-08
vt 1 0.4999999
vt 0.5 0.4999999
vt 1 0.5
vt 0.5 0.5

vn 0 0 1
vn -1 0 0
vn 0 0 -1
vn 1 0 0
vn 0 1 0
vn 0 -1 0

usemtl Mat_Dummy_3
f 3/3/1 4/4/1 2/2/1 1/1/1
f 4/5/2 6/6/2 5/2/2 2/1/2
f 6/5/3 8/6/3 7/2/3 5/1/3
f 8/3/4 3/4/4 1/2/4 7/1/4
f 8/2/5 6/1/5 4/5/5 3/6/5
f 1/3/6 2/4/6 5/2/6 7/1/6

