# ProBuilder 5.2.2
# https://unity3d.com/unity/features/worldbuilding/probuilder
# 12/14/2023 12:47:15 PM

mtllib ./Mdl_Button_NotPressed.mtl
o Mdl_Button_NotPressed

g NotPressed
v 0 -5.960464E-08 0
v -0.5999999 -5.960464E-08 0
v 0 0.0386914 0
v -0.5999999 0.0386914 0
v -0.5999999 -5.960464E-08 -0.5999999
v -0.5999999 0.0386914 -0.5999999
v 0 -5.960464E-08 -0.5999999
v 0 0.0386914 -0.5999999

vt 1 0.8738388
vt 0.5000001 0.8738388
vt 1 0.9988389
vt 0.5000001 0.9988389
vt 1 0.875
vt 0.5 0.875
vt 1 1
vt 0.5 1
vt 0.9999999 0.8743461
vt 0.5000001 0.8743461
vt 0.9999999 0.9983314
vt 0.5000001 0.9983314
vt -1.490116E-08 1
vt 0.5 1
vt -1.490116E-08 0.5
vt 0.5 0.5
vt 0.5 0.5

vn 0 0 1
vn -1 0 0
vn 0 0 -1
vn 1 0 0
vn 0 1 0
vn 0 -1 0

usemtl Mat_Button
f 3/3/1 4/4/1 2/2/1 1/1/1
f 4/7/2 6/8/2 5/6/2 2/5/2
f 6/11/3 8/12/3 7/10/3 5/9/3
f 8/7/4 3/8/4 1/6/4 7/5/4
f 8/15/5 6/16/5 4/14/5 3/13/5
f 1/8/6 2/13/6 5/15/6 7/17/6

